<?xml version="1.0" encoding="UTF-8" standalone="no"?>
<svg
   xmlns:dc="http://purl.org/dc/elements/1.1/"
   xmlns:cc="http://creativecommons.org/ns#"
   xmlns:rdf="http://www.w3.org/1999/02/22-rdf-syntax-ns#"
   xmlns:svg="http://www.w3.org/2000/svg"
   xmlns="http://www.w3.org/2000/svg"
   width="48"
   height="48"
   viewBox="0 0 12.7 12.7"
   version="1.1"
   id="svg8">
  <defs
     id="defs2" />
  <metadata
     id="metadata5">
    <rdf:RDF>
      <cc:Work
         rdf:about="">
        <dc:format>image/svg+xml</dc:format>
        <dc:type
           rdf:resource="http://purl.org/dc/dcmitype/StillImage" />
        <dc:title></dc:title>
      </cc:Work>
    </rdf:RDF>
  </metadata>
  <path
     id="path839"
     transform="scale(0.26458333)"
     d="M 24 0 A 24 24 0 0 0 0 24 A 24 24 0 0 0 24 48 A 24 24 0 0 0 48 24 A 24 24 0 0 0 24 0 z M 11.208984 6.1953125 L 17.886719 6.1953125 C 19.362955 6.1953125 20.612167 6.3208246 21.636719 6.5742188 C 22.661271 6.8165711 23.57008 7.2036087 24.363281 7.7324219 C 25.2997 8.3603766 26.022529 9.1417234 26.529297 10.078125 C 27.047081 11.014546 27.304687 12.198692 27.304688 13.630859 C 27.304688 14.721514 27.112147 15.735454 26.726562 16.671875 C 26.351996 17.597274 25.823659 18.400938 25.140625 19.083984 C 24.29234 19.932267 23.289565 20.572301 22.132812 21.001953 C 20.976061 21.420583 19.516576 21.628906 17.753906 21.628906 L 14.482422 21.628906 L 14.482422 30.800781 L 11.208984 30.800781 L 11.208984 6.1953125 z M 14.482422 9.0039062 L 14.482422 18.835938 L 17.242188 18.835938 C 18.564189 18.835938 19.636639 18.721584 20.462891 18.490234 C 21.289142 18.247862 21.962684 17.8674 22.480469 17.349609 C 22.998253 16.820816 23.360997 16.263572 23.570312 15.679688 C 23.790646 15.095802 23.900391 14.439987 23.900391 13.712891 C 23.900391 12.864608 23.752529 12.127955 23.455078 11.5 C 23.157627 10.872045 22.705527 10.359496 22.099609 9.9628906 C 21.570808 9.6213772 20.964285 9.3775859 20.28125 9.234375 C 19.609232 9.0802196 18.756272 9.0039062 17.720703 9.0039062 L 14.482422 9.0039062 z M 33.683594 15.580078 L 36.791016 15.580078 L 36.791016 41.292969 L 33.683594 41.292969 L 33.683594 39.359375 C 32.791242 40.13056 31.860093 40.730523 30.890625 41.160156 C 29.921156 41.589808 28.869094 41.804688 27.734375 41.804688 C 25.531037 41.804688 23.780438 40.95633 22.480469 39.259766 C 21.191516 37.563201 20.546875 35.212644 20.546875 32.205078 C 20.546875 30.640722 20.766364 29.2463 21.207031 28.023438 C 21.658715 26.800595 22.265239 25.759695 23.025391 24.900391 C 23.774525 24.063111 24.645217 23.423077 25.636719 22.982422 C 26.639237 22.541747 27.673569 22.322266 28.742188 22.322266 C 29.711656 22.322266 30.571178 22.427394 31.320312 22.636719 C 32.069447 22.835021 32.857342 23.148473 33.683594 23.578125 L 33.683594 15.580078 z M 29.271484 25.164062 C 27.530848 25.164062 26.1765 25.770582 25.207031 26.982422 C 24.237563 28.194262 23.751953 29.913314 23.751953 32.138672 C 23.751953 34.331002 24.125865 35.998805 24.875 37.144531 C 25.624135 38.279255 26.826013 38.847656 28.478516 38.847656 C 29.359851 38.847656 30.252882 38.655114 31.15625 38.269531 C 32.059618 37.872926 32.901409 37.364979 33.683594 36.748047 L 33.683594 26.15625 C 32.846326 25.781689 32.096548 25.522117 31.435547 25.378906 C 30.774546 25.235637 30.053669 25.164063 29.271484 25.164062 z "
     style="opacity:1;fill:#000000;fill-opacity:1;stroke:none;stroke-width:3.06330872;stroke-miterlimit:4;stroke-dasharray:none;stroke-opacity:1" />
  <path
     cx="6.3499999"
     cy="290.64999"
     r="6.2118115"
     id="path815"
     style="opacity:1;fill:#000000;fill-opacity:1;stroke:#000000;stroke-width:0.27637661;stroke-miterlimit:4;stroke-dasharray:none;stroke-opacity:1"
     d="" />
  <g
     transform="matrix(0.77150586,0,0,0.77150586,1.4208751,-219.37914)"
     id="text819"
     style="font-style:normal;font-variant:normal;font-weight:normal;font-stretch:normal;font-size:11.60634518px;line-height:1.25;font-family:sans-serif;-inkscape-font-specification:sans-serif;letter-spacing:0px;word-spacing:0px;fill:#ffffff;fill-opacity:1;stroke:none;stroke-width:0.29015863"
     aria-label="P" />
  <g
     transform="matrix(0.77150586,0,0,0.77150586,1.4208751,-219.37914)"
     id="text819-4"
     style="font-style:normal;font-variant:normal;font-weight:normal;font-stretch:normal;font-size:11.60634518px;line-height:1.25;font-family:sans-serif;-inkscape-font-specification:sans-serif;letter-spacing:0px;word-spacing:0px;fill:#ffffff;fill-opacity:1;stroke:none;stroke-width:0.29015863"
     aria-label="d" />
</svg>